<?xml version="1.0" encoding="utf-8"?>
<!-- Generator: Adobe Illustrator 25.0.0, SVG Export Plug-In . SVG Version: 6.00 Build 0)  -->
<svg version="1.1" id="Layer_1" xmlns="http://www.w3.org/2000/svg" xmlns:xlink="http://www.w3.org/1999/xlink" x="0px" y="0px"
	 viewBox="0 0 507.7 146.3" style="enable-background:new 0 0 507.7 146.3;" xml:space="preserve">
<style type="text/css">
	.st0{fill:#23C29C;}
	.st1{fill:none;stroke:#FFFFFF;stroke-miterlimit:10;}
</style>
<g id="XMLID_581_">
	<g id="XMLID_405_">
		<path id="XMLID_407_" class="st0" d="M59,115.6c-3.6,4.6-9.2,7.4-15.7,7.4c-10.7,0-19.4-8.2-19.4-20c0-11.7,8.7-20,19.4-20
			c5.4,0,10.8,2,14.8,7.4L76.5,76c-8-9.8-20-16.2-33.3-16.2c-23.8,0-43,19.3-43,43.3c0,23.6,19.2,43.1,43,43.1
			c13.6,0,26.1-6.4,33.9-16.2L59,115.6z"/>
		<path id="XMLID_693_" class="st0" d="M145.9,61.2v41.5c0,15.2-9.6,20.3-20,20.3c-9.3,0-17-8.4-17-20.3V61.2h-24v43.5
			c0,22.8,15.7,41.5,37.6,41.5c7.9,0,18.4-2.5,23.4-7.7v5.7h23v-83L145.9,61.2L145.9,61.2z"/>
		<path id="XMLID_695_" class="st0" d="M288.9,83.2v-22h-20V33.8l-23,16.9v10.5h-32V33.8l-23,16.9v10.5h-13v22h13v26.9
			c0,21.5,18,36.1,42,36.1v-22.3c-10,0-19-4.6-19-14.4V83.2h32v26.9c0,21.5,18,36.1,43,36.1v-22.3c-11,0-20-4.6-20-14.4V83.2H288.9z
			"/>
		<path id="XMLID_698_" class="st0" d="M341.5,123c-2.5,0-4.8-0.2-6.9-1l46.2-33.1c-5.1-15.4-20.8-29.2-41.3-29.2
			c-23.8,0-43,19.3-43,43.3c0,23.6,20,43.1,44.9,43.1c14.8,0,29.4-6.7,36.4-17.2l-18.5-14.3C355.6,120.6,348.6,123,341.5,123z
			 M320.2,103c0-11.7,8.7-20,19.4-20c4.4,0,8.2,1.5,11.5,3.9l-30.2,21.5C320.4,106.8,320.2,105,320.2,103z"/>
		<path id="XMLID_703_" class="st0" d="M414.3,61.2h-22.4v83h24V103c0-10.3,4.6-16.9,10.9-19.2C420.4,78.2,415.8,70.2,414.3,61.2z"
			/>
	</g>
	<g id="XMLID_398_">
		<path id="XMLID_406_" class="st0" d="M455.4,46c-1.4-0.6-2.9-0.9-4.4-0.9c-2.9,0-5.7,1.1-7.9,3.3c-3.3,3.3-4.2,8-2.4,12.3
			c1.8,4.3,5.8,6.9,10.4,6.9c6.2,0,11.3-5,11.3-11.3C462.4,51.7,459.7,47.7,455.4,46z M451.1,61.2c-2.9,0-4.8-2.4-4.8-4.8
			c0-1.2,0.4-2.4,1.4-3.4s2.2-1.4,3.4-1.4c2.5,0,4.8,1.9,4.8,4.8C455.9,59,453.8,61.2,451.1,61.2z M455.4,46
			c-1.4-0.6-2.9-0.9-4.4-0.9c-2.9,0-5.7,1.1-7.9,3.3c-3.3,3.3-4.2,8-2.4,12.3c1.8,4.3,5.8,6.9,10.4,6.9c6.2,0,11.3-5,11.3-11.3
			C462.4,51.7,459.7,47.7,455.4,46z M451.1,61.2c-2.9,0-4.8-2.4-4.8-4.8c0-1.2,0.4-2.4,1.4-3.4s2.2-1.4,3.4-1.4
			c2.5,0,4.8,1.9,4.8,4.8C455.9,59,453.8,61.2,451.1,61.2z M450.9,24.9c-7.7,0-15.6,2.9-22,9.3s-9.3,14.3-9.3,22
			c0,16.1,12.5,31.6,31.5,31.6c17.3,0,31.4-14.1,31.4-31.4C482.5,37.4,467.1,24.9,450.9,24.9z M451.1,70.8c-5.9,0-11-3.4-13.3-8.9
			c-2.3-5.5-1.1-11.5,3.1-15.7c4.2-4.2,10.2-5.4,15.7-3.1s8.9,7.4,8.9,13.3C465.5,64.3,459.1,70.8,451.1,70.8z M455.4,46
			c-1.4-0.6-2.9-0.9-4.4-0.9c-2.9,0-5.7,1.1-7.9,3.3c-3.3,3.3-4.2,8-2.4,12.3c1.8,4.3,5.8,6.9,10.4,6.9c6.2,0,11.3-5,11.3-11.3
			C462.4,51.7,459.7,47.7,455.4,46z M451.1,61.2c-2.9,0-4.8-2.4-4.8-4.8c0-1.2,0.4-2.4,1.4-3.4s2.2-1.4,3.4-1.4
			c2.5,0,4.8,1.9,4.8,4.8C455.9,59,453.8,61.2,451.1,61.2z"/>
		<g id="XMLID_403_">
			<path id="XMLID_404_" class="st0" d="M417,46.7c1.6-5.8,4.7-11,9.2-15.5c6.6-6.6,14.9-10.1,24-10.2l-0.3,0.1V-0.2
				c-28,0-49.8,20.3-55.6,46.3H417L417,46.7z"/>
		</g>
		<path id="XMLID_402_" class="st0" d="M492.1,93l-38.5,38.5V91.5c18.3-1.2,32.8-16.5,32.8-35.1c0-9.9-3.9-19-11-25.6
			c-5.9-5.5-13.8-8.9-21.8-9.6V0c16.4,0,30.1,6.7,39.6,16.9C511.8,36.9,514.8,70.3,492.1,93z"/>
		<path id="XMLID_399_" class="st1" d="M463.6,43.2c-3.4-3.1-7.9-4.9-12.5-4.9l0,0c-4.8,0-9.3,1.9-12.7,5.3
			c-5.3,5.3-6.8,12.8-3.9,19.7c2.9,6.9,9.2,11.2,16.7,11.2c10,0,18.1-8.1,18.1-18.1C469.2,51.3,467.2,46.6,463.6,43.2z M451.1,70.8
			c-5.9,0-11-3.4-13.3-8.9c-2.3-5.5-1.1-11.5,3.1-15.7c4.2-4.2,10.2-5.4,15.7-3.1c5.5,2.3,8.9,7.4,8.9,13.3
			C465.5,64.3,459.1,70.8,451.1,70.8z"/>
	</g>
</g>
</svg>
